<svg width="197" height="50" viewBox="0 0 197 50" fill="none" xmlns="http://www.w3.org/2000/svg">
<path d="M37.9357 46.3971C38.8583 45.8381 39.1532 44.6372 38.5943 43.7146C38.0354 42.7918 36.8345 42.4971 35.9118 43.056C32.6313 45.0434 28.8579 46.0937 25 46.0937C13.3688 46.0937 3.90625 36.6312 3.90625 25C3.90625 13.3688 13.3688 3.90625 25 3.90625C36.6312 3.90625 46.0937 13.3688 46.0937 25C46.0937 29.1591 44.8569 33.2074 42.517 36.7074C41.9174 37.6042 42.1584 38.8172 43.0551 39.4166C43.952 40.0162 45.1648 39.7752 45.7643 38.8785C48.5354 34.7338 50 29.9346 50 25C50 18.3223 47.3995 12.0442 42.6777 7.32227C37.9558 2.60049 31.6777 0 25 0C18.3223 0 12.0442 2.60049 7.32227 7.32227C2.60049 12.0442 0 18.3223 0 25C0 31.6777 2.60049 37.9558 7.32227 42.6777C12.0442 47.3995 18.3223 50 25 50C29.5716 50 34.0446 48.7541 37.9357 46.3971Z" fill="#4F4F4F"/>
<path fill-rule="evenodd" clip-rule="evenodd" d="M28.3854 35.2543C28.8935 35.2543 29.3074 35.4261 29.6461 35.7698C29.9974 36.1263 30.173 36.5463 30.173 37.0301C30.173 37.5265 29.9974 37.9529 29.6461 38.3094C29.3074 38.6531 28.8935 38.8249 28.4042 38.8249C26.2277 38.8249 24.3837 38.0484 22.8533 36.4954C21.3228 34.9424 20.5576 33.0712 20.5576 30.8817L20.5576 13.6776C20.5576 13.1939 20.727 12.7738 21.0657 12.4174C21.4169 12.0737 21.8372 11.9019 22.3264 11.9019C22.8031 11.9019 23.2171 12.0737 23.5683 12.4174C23.907 12.7738 24.0764 13.1939 24.0764 13.6776V19.5969H26.9177C27.4069 19.5969 27.8209 19.7687 28.1596 20.1124C28.5109 20.4561 28.6865 20.8762 28.6865 21.3727C28.6865 21.8691 28.5109 22.2892 28.1596 22.6329C27.8209 22.9893 27.4069 23.1675 26.9177 23.1675H24.0764L24.0764 30.8817C24.0764 32.091 24.4966 33.1221 25.3371 33.975C26.1776 34.8278 27.1937 35.2543 28.3854 35.2543Z" fill="#4F4F4F" stroke="#4F4F4F"/>
<path d="M60.416 4.1H76.896V8.324H70.848V26.5H66.432V8.324H60.416V4.1ZM81.906 10.5V13.252C82.674 11.204 84.594 10.18 86.77 10.18V14.788C85.522 14.628 84.37 14.884 83.378 15.556C82.386 16.228 81.906 17.316 81.906 18.852V26.5H77.778V10.5H81.906ZM101.391 12.388V10.5H105.519V26.5H101.391V24.612C100.143 26.18 98.4145 26.948 96.1745 26.948C94.0305 26.948 92.2065 26.148 90.6705 24.516C89.1665 22.884 88.3985 20.868 88.3985 18.5C88.3985 16.132 89.1665 14.148 90.6705 12.516C92.2065 10.884 94.0305 10.052 96.1745 10.052C98.4145 10.052 100.143 10.82 101.391 12.388ZM93.7745 21.764C94.6065 22.596 95.6625 23.012 96.9425 23.012C98.2225 23.012 99.2785 22.596 100.111 21.764C100.975 20.9 101.391 19.812 101.391 18.5C101.391 17.188 100.975 16.1 100.111 15.268C99.2785 14.404 98.2225 13.988 96.9425 13.988C95.6625 13.988 94.6065 14.404 93.7745 15.268C92.9425 16.1 92.5265 17.188 92.5265 18.5C92.5265 19.812 92.9425 20.9 93.7745 21.764ZM116.526 21.7L120.43 10.5H124.974L118.894 26.5H114.19L108.11 10.5H112.654L116.526 21.7ZM143.156 20.196H131.092C131.636 22.212 133.14 23.204 135.604 23.204C137.172 23.204 138.388 22.66 139.188 21.604L142.516 23.524C140.948 25.796 138.612 26.948 135.54 26.948C132.884 26.948 130.772 26.148 129.172 24.548C127.572 22.948 126.772 20.932 126.772 18.5C126.772 16.1 127.572 14.084 129.14 12.484C130.708 10.852 132.756 10.052 135.22 10.052C137.556 10.052 139.508 10.852 141.012 12.484C142.548 14.116 143.316 16.1 143.316 18.5C143.316 19.044 143.252 19.588 143.156 20.196ZM131.028 16.996H139.188C138.708 14.82 137.108 13.764 135.22 13.764C133.012 13.764 131.508 14.948 131.028 16.996ZM150.966 26.5H146.838V3.14H150.966V26.5ZM170.936 20.196H158.872C159.416 22.212 160.92 23.204 163.384 23.204C164.952 23.204 166.168 22.66 166.968 21.604L170.296 23.524C168.728 25.796 166.392 26.948 163.32 26.948C160.664 26.948 158.552 26.148 156.952 24.548C155.352 22.948 154.552 20.932 154.552 18.5C154.552 16.1 155.352 14.084 156.92 12.484C158.488 10.852 160.536 10.052 163 10.052C165.336 10.052 167.288 10.852 168.792 12.484C170.328 14.116 171.096 16.1 171.096 18.5C171.096 19.044 171.032 19.588 170.936 20.196ZM158.808 16.996H166.968C166.488 14.82 164.888 13.764 163 13.764C160.792 13.764 159.288 14.948 158.808 16.996ZM178.746 10.5V13.252C179.514 11.204 181.434 10.18 183.61 10.18V14.788C182.362 14.628 181.21 14.884 180.218 15.556C179.226 16.228 178.746 17.316 178.746 18.852V26.5H174.618V10.5H178.746Z" fill="#313131"/>
<path d="M66.17 39.5H67.4V46.5H66.25V41.51L64.12 45.03H63.98L61.85 41.5V46.5H60.7V39.5H61.94L64.05 43L66.17 39.5ZM75.0957 46.5H73.8557L73.3657 45.09H70.3857L69.8957 46.5H68.6457L71.1857 39.5H72.5657L75.0957 46.5ZM71.8757 40.85L70.7657 44.01H72.9857L71.8757 40.85ZM76.3484 39.5H79.0984C80.0584 39.5 80.8584 39.84 81.4884 40.51C82.1284 41.18 82.4484 42.01 82.4484 43C82.4484 43.98 82.1284 44.81 81.4884 45.49C80.8584 46.16 80.0584 46.5 79.0984 46.5H76.3484V39.5ZM77.4984 45.4H79.0984C79.7584 45.4 80.2984 45.17 80.7084 44.72C81.1284 44.27 81.3384 43.69 81.3384 43C81.3384 42.3 81.1284 41.73 80.7084 41.28C80.2984 40.83 79.7584 40.6 79.0984 40.6H77.4984V45.4ZM85.1469 43.51V45.4H88.2469V46.5H83.9969V39.5H88.1969V40.6H85.1469V42.42H87.9469V43.51H85.1469ZM96.9196 42.87C97.5296 43.19 97.8996 43.77 97.8996 44.5C97.8996 45.07 97.6996 45.55 97.2896 45.93C96.8796 46.31 96.3896 46.5 95.7996 46.5H92.7996V39.5H95.5796C96.1496 39.5 96.6396 39.69 97.0296 40.06C97.4296 40.43 97.6296 40.89 97.6296 41.44C97.6296 42.05 97.3896 42.52 96.9196 42.87ZM95.5796 40.58H93.9496V42.42H95.5796C96.0896 42.42 96.4796 42.02 96.4796 41.5C96.4796 40.98 96.0896 40.58 95.5796 40.58ZM93.9496 45.42H95.7996C96.3296 45.42 96.7496 44.99 96.7496 44.44C96.7496 43.89 96.3296 43.46 95.7996 43.46H93.9496V45.42ZM103.161 39.5H104.471L102.031 43.72V46.5H100.881V43.72L98.4406 39.5H99.7506L101.461 42.6L103.161 39.5ZM111.053 46.63C109.703 46.63 108.723 45.98 108.353 44.91L109.343 44.33C109.623 45.12 110.203 45.51 111.083 45.51C111.953 45.51 112.383 45.14 112.383 44.59C112.383 44.3 112.263 44.09 112.033 43.94C111.803 43.79 111.383 43.62 110.793 43.44C110.123 43.24 109.793 43.11 109.323 42.8C108.873 42.48 108.643 42.02 108.643 41.39C108.643 40.77 108.863 40.28 109.303 39.92C109.743 39.55 110.273 39.37 110.893 39.37C112.013 39.37 112.883 39.95 113.333 40.91L112.363 41.47C112.073 40.82 111.583 40.49 110.893 40.49C110.223 40.49 109.793 40.83 109.793 41.36C109.793 41.88 110.133 42.12 111.203 42.45C111.473 42.54 111.663 42.6 111.783 42.65C111.913 42.69 112.083 42.76 112.303 42.85C112.533 42.94 112.703 43.04 112.813 43.13C113.183 43.42 113.583 43.9 113.533 44.57C113.533 45.2 113.303 45.71 112.843 46.08C112.393 46.45 111.793 46.63 111.053 46.63ZM119.125 42.37V39.5H120.275V46.5H119.125V43.47H116.125V46.5H114.975V39.5H116.125V42.37H119.125ZM122.175 46.5V39.5H123.325V46.5H122.175ZM129.423 44.25V39.5H130.573V46.5H129.673L126.373 41.75V46.5H125.223V39.5H126.123L129.423 44.25ZM133.621 43.51V45.4H136.721V46.5H132.471V39.5H136.671V40.6H133.621V42.42H136.421V43.51H133.621ZM141.526 46.63C140.476 46.63 139.596 46.28 138.906 45.59C138.216 44.89 137.866 44.03 137.866 43C137.866 41.97 138.216 41.11 138.906 40.42C139.596 39.72 140.476 39.37 141.526 39.37C142.796 39.37 143.936 40.01 144.536 41.04L143.536 41.62C143.166 40.93 142.406 40.49 141.526 40.49C140.776 40.49 140.176 40.73 139.706 41.2C139.246 41.67 139.016 42.27 139.016 43C139.016 43.73 139.246 44.33 139.706 44.8C140.176 45.27 140.776 45.51 141.526 45.51C142.406 45.51 143.176 45.07 143.536 44.38L144.536 44.95C144.246 45.46 143.826 45.87 143.286 46.18C142.756 46.48 142.166 46.63 141.526 46.63ZM151.89 45.58C151.19 46.28 150.33 46.63 149.32 46.63C148.31 46.63 147.45 46.28 146.74 45.58C146.04 44.87 145.69 44.01 145.69 43C145.69 41.99 146.04 41.13 146.74 40.43C147.45 39.72 148.31 39.37 149.32 39.37C150.33 39.37 151.19 39.72 151.89 40.43C152.6 41.13 152.95 41.99 152.95 43C152.95 44.01 152.6 44.87 151.89 45.58ZM147.55 44.8C148.03 45.27 148.62 45.51 149.32 45.51C150.02 45.51 150.61 45.27 151.08 44.8C151.56 44.32 151.8 43.72 151.8 43C151.8 42.28 151.56 41.68 151.08 41.21C150.61 40.73 150.02 40.49 149.32 40.49C148.62 40.49 148.03 40.73 147.55 41.21C147.08 41.68 146.84 42.28 146.84 43C146.84 43.72 147.08 44.32 147.55 44.8ZM159.969 39.5H161.199V46.5H160.049V41.51L157.919 45.03H157.779L155.649 41.5V46.5H154.499V39.5H155.739L157.849 43L159.969 39.5ZM168.565 39.5H169.795V46.5H168.645V41.51L166.515 45.03H166.375L164.245 41.5V46.5H163.095V39.5H164.335L166.445 43L168.565 39.5ZM172.84 43.51V45.4H175.94V46.5H171.69V39.5H175.89V40.6H172.84V42.42H175.64V43.51H172.84ZM182.743 46.5H181.483L180.003 43.95H178.643V46.5H177.493V39.5H180.293C180.923 39.5 181.453 39.72 181.883 40.16C182.323 40.59 182.543 41.12 182.543 41.75C182.543 42.64 181.983 43.45 181.153 43.78L182.743 46.5ZM180.293 40.58H178.643V42.92H180.293C180.903 42.92 181.393 42.4 181.393 41.75C181.393 41.1 180.903 40.58 180.293 40.58ZM187.387 46.63C186.337 46.63 185.457 46.28 184.767 45.59C184.077 44.89 183.727 44.03 183.727 43C183.727 41.97 184.077 41.11 184.767 40.42C185.457 39.72 186.337 39.37 187.387 39.37C188.657 39.37 189.797 40.01 190.397 41.04L189.397 41.62C189.027 40.93 188.267 40.49 187.387 40.49C186.637 40.49 186.037 40.73 185.567 41.2C185.107 41.67 184.877 42.27 184.877 43C184.877 43.73 185.107 44.33 185.567 44.8C186.037 45.27 186.637 45.51 187.387 45.51C188.267 45.51 189.037 45.07 189.397 44.38L190.397 44.95C190.107 45.46 189.687 45.87 189.147 46.18C188.617 46.48 188.027 46.63 187.387 46.63ZM193.002 43.51V45.4H196.102V46.5H191.852V39.5H196.052V40.6H193.002V42.42H195.802V43.51H193.002Z" fill="#4F4F4F"/>
</svg>
